<?xml version="1.0" encoding="UTF-8"?>
<svg version="1.1" xmlns="http://www.w3.org/2000/svg" width="1900" height="111">
<path d="M0 0 C0 36.63 0 73.26 0 111 C-627 111 -1254 111 -1900 111 C-1900 76.68 -1900 42.36 -1900 7 C-1888.0890625 9.536875 -1888.0890625 9.536875 -1875.9375 12.125 C-1817.16107845 24.52913169 -1758.20330557 35.82690159 -1699 46 C-1698.30351349 46.11984505 -1697.60702698 46.23969009 -1696.88943481 46.36316681 C-1613.25343681 60.75139983 -1529.17669733 72.67189289 -1379 89 C-1378.27985718 89.07014816 -1377.55971436 89.14029633 -1376.81774902 89.21257019 C-1290.00981439 97.65331748 -1202.92389938 103.2327129 -11.81225586 1.82641602 C-11.1306691 1.69770111 -10.44908234 1.56898621 -9.74684143 1.43637085 C-8.00052923 1.10541197 -6.25486785 0.77102376 -4.50927734 0.4362793 C-2 0 -2 0 0 0 Z " fill="#FFFFFF" transform="translate(1900,0)"/>
</svg>
