<?xml version="1.0" encoding="UTF-8" standalone="no"?>
<!-- Created with Inkscape (http://www.inkscape.org/) -->

<svg
   width="250"
   height="250"
   viewBox="0 0 66.145832 66.145833"
   version="1.1"
   id="svg1"
   xml:space="preserve"
   inkscape:export-filename="bitmap.png"
   inkscape:export-xdpi="96"
   inkscape:export-ydpi="96"
   inkscape:version="1.3.2 (091e20e, 2023-11-25)"
   sodipodi:docname="drawing.svg"
   xmlns:inkscape="http://www.inkscape.org/namespaces/inkscape"
   xmlns:sodipodi="http://sodipodi.sourceforge.net/DTD/sodipodi-0.dtd"
   xmlns="http://www.w3.org/2000/svg"
   xmlns:svg="http://www.w3.org/2000/svg"><sodipodi:namedview
     id="namedview1"
     pagecolor="#ffffff"
     bordercolor="#000000"
     borderopacity="0"
     inkscape:showpageshadow="2"
     inkscape:pageopacity="0.0"
     inkscape:pagecheckerboard="0"
     inkscape:deskcolor="#d1d1d1"
     inkscape:document-units="px"
     inkscape:zoom="1.2566698"
     inkscape:cx="174.66799"
     inkscape:cy="182.22766"
     inkscape:window-width="1472"
     inkscape:window-height="863"
     inkscape:window-x="0"
     inkscape:window-y="37"
     inkscape:window-maximized="0"
     inkscape:current-layer="layer1" /><defs
     id="defs1" /><g
     inkscape:label="Layer 1"
     inkscape:groupmode="layer"
     id="layer1"
     style="display:inline"><g
       id="g2"
       transform="matrix(0.5315553,0,0,0.59396728,-23.776818,-53.084174)"><path
         style="fill:#ffffff;stroke-width:0.439739"
         d="m 48.193076,200.52978 c -1.79025,-0.2662 -2.87123,-1.18568 -3.16213,-2.6897 -0.0975,-0.50434 -0.12922,-15.73968 -0.10542,-50.71418 l 0.034,-49.993262 4.77567,5.008702 c 5.88455,6.17169 24.41773,25.89613 30.88407,32.86921 6.63751,7.15767 16.61163,18.03353 26.883154,29.3136 l 2.09229,2.29774 -1.24297,0.17032 c -1.98072,0.27141 -5.93488,0.37759 -7.06539,0.18972 -1.400354,-0.23271 -2.964884,-0.8429 -4.146844,-1.61734 -1.15858,-0.75912 -2.24584,-1.88923 -8.50369,-8.83883 -3.79647,-4.21614 -15.7395,-16.93891 -27.97556,-29.80205 -5.2341,-5.50234 -6.80436,-7.10107 -6.97459,-7.10104 -0.0499,1e-5 -0.10241,17.60624 -0.11676,39.12496 -0.0192,28.82273 -0.0654,39.28244 -0.17561,39.72305 -0.36241,1.44961 -1.30158,2.07857 -3.19849,2.14199 -0.64858,0.0217 -1.54937,-0.0156 -2.00175,-0.0829 z m 17.4754,-0.0222 c -1.24236,-0.17413 -1.97289,-0.76168 -2.34731,-1.88789 -0.19996,-0.60143 -0.18851,1.92619 -0.14209,-31.36371 l 0.0327,-23.45733 0.32462,0.69333 c 0.53675,1.14641 1.61625,2.39392 3.77687,4.36468 2.29239,2.09096 3.39194,3.44596 3.93767,4.85249 0.3145,0.81057 0.37943,1.22704 0.48258,3.09508 0.0656,1.18717 0.10324,10.99435 0.0838,21.79373 l -0.0354,19.63524 -0.30695,0.66344 c -0.35676,0.77106 -1.04701,1.27025 -2.05114,1.48336 -0.88876,0.18863 -2.8454,0.2551 -3.75527,0.12758 z m 79.698434,-0.11147 c -1.05703,-0.20123 -1.65791,-0.66656 -2.16358,-1.67552 -0.23543,-0.46973 -0.24428,-1.26197 -0.24428,-21.86335 0,-20.35512 0.0115,-21.41585 0.24058,-22.21149 0.42632,-1.48064 0.9978,-2.43128 2.31081,-3.84396 0.68364,-0.73554 1.7753,-1.80966 2.4259,-2.38693 1.53635,-1.36319 2.54769,-2.53584 3.12163,-3.61956 l 0.46198,-0.87233 0.0373,26.52845 c 0.0205,14.59066 -0.007,26.898 -0.0616,27.34966 -0.13519,1.12218 -0.55367,1.87956 -1.27653,2.31034 -0.54176,0.32284 -0.72872,0.35179 -2.41891,0.37454 -1.00747,0.0136 -2.10243,-0.0269 -2.43324,-0.0898 z m 17.77056,-1.31993 c -1.13432,-0.34379 -1.77313,-0.9666 -2.15014,-2.0963 -0.22085,-0.66175 -0.23035,-2.60934 -0.1917,-39.27047 l 0.0407,-38.57419 -1.61155,1.74134 c -0.88636,0.95773 -2.31465,2.55571 -3.17399,3.55105 -0.85934,0.99534 -6.57532,7.16763 -12.7022,13.71619 -6.12687,6.54856 -12.93074,13.82253 -15.11973,16.16439 -5.06784,5.42176 -6.16802,6.26747 -7.9051,6.07665 -1.45297,-0.15961 -2.50292,-0.99585 -6.14449,-4.89385 -13.21573,-14.14634 -43.241984,-46.30037 -50.640334,-54.2289 -5.10932,-5.475469 -9.42215,-10.081505 -9.58406,-10.235634 -0.16192,-0.154128 -0.29439,-0.323958 -0.29439,-0.377397 0,-0.282694 2.48396,-1.005031 4.28502,-1.246087 2.83682,-0.379688 6.18157,0.640384 8.69191,2.65083 0.48081,0.385059 12.40365,13.004328 26.4952,28.042808 17.583724,18.76533 25.793804,27.43552 26.171854,27.63858 0.83301,0.44743 1.85526,0.40488 2.70423,-0.11255 0.44645,-0.27211 2.24234,-2.09539 5.38039,-5.46245 13.93825,-14.95542 39.02932,-41.55507 40.10452,-42.515771 0.68259,-0.609897 1.35454,-1.220225 1.49323,-1.356285 0.13869,-0.136059 0.26507,-0.232376 0.28085,-0.214037 0.0158,0.01834 0.0459,22.154313 0.0669,49.191063 0.0292,37.6133 0.002,49.29177 -0.11702,49.72853 -0.22959,0.84418 -0.68164,1.47447 -1.33843,1.86619 -0.53327,0.31806 -0.73637,0.35063 -2.35006,0.37698 -1.17316,0.0192 -1.97632,-0.0348 -2.39157,-0.16066 z m -43.86229,-66.70034 c -0.8763,-0.63962 -3.80931,-3.82587 -3.9929,-4.33765 -0.27297,-0.76096 -0.25481,-1.2254 0.0782,-1.99958 0.33746,-0.78452 1.29001,-1.845 6.14141,-6.83728 10.41498,-10.71742 17.6032,-18.36599 22.44179,-23.879019 2.90444,-3.309277 4.06015,-4.192121 6.53965,-4.995623 2.06187,-0.668166 4.06237,-0.803007 8.80876,-0.593745 l 2.72561,0.120165 -2.53277,2.734601 c -1.39303,1.504033 -3.62048,3.929713 -4.9499,5.390406 -1.32942,1.460692 -5.71431,6.125335 -9.7442,10.365875 -4.02988,4.24055 -10.742,11.35519 -14.91581,15.81032 -4.97272,5.30789 -7.77864,8.20324 -8.13961,8.39901 -0.85486,0.46363 -1.66161,0.40543 -2.46022,-0.17748 z"
         id="path1"
         sodipodi:nodetypes="cssccsscsssssssscccssscssssscsssscssssssccsssccssscssssssssssssssssssscssssssssssscssssss" /></g><path
       style="fill:#ffffff;stroke-width:0.246879"
       d="M 1.7591925,66.000887 C 0.81108131,65.842455 0.23859796,65.295217 0.08453804,64.400083 0.03290501,64.09992 0.01610683,55.032442 0.02870922,34.216992 L 0.04671585,4.4629655 2.5758965,7.4439473 C 5.6923367,11.117095 15.507453,22.856308 18.932008,27.006412 c 3.515206,4.259964 8.79747,10.732849 14.237239,17.446304 l 1.10807,1.367525 -0.658273,0.101367 c -1.048984,0.161533 -3.143095,0.224727 -3.74181,0.112914 -0.741623,-0.1385 -1.570193,-0.501661 -2.196156,-0.962577 C 27.067497,44.620147 26.491688,43.947549 23.177549,39.81142 21.16695,37.302139 14.841956,29.730046 8.3617747,22.074409 5.5898115,18.799632 4.7582067,17.848131 4.6680535,17.848149 4.6416255,17.848155 4.6138155,28.326692 4.6062195,41.13379 4.5960485,58.287948 4.5715875,64.513158 4.5132175,64.775392 4.3212866,65.638143 3.823905,66.012475 2.8193067,66.05022 2.4758206,66.06314 1.9987649,66.04092 1.7591858,66.00088 Z m 9.2549195,-0.01321 c -0.65795,-0.103638 -1.0448367,-0.453324 -1.2431285,-1.1236 -0.1058982,-0.357948 -0.099834,1.146392 -0.07525,-18.666451 l 0.017318,-13.960882 0.1719178,0.412643 c 0.2842617,0.682298 0.8559617,1.424767 2.0002197,2.597686 1.214043,1.244457 1.796361,2.0509 2.085378,2.888012 0.166558,0.482419 0.200945,0.730286 0.255573,1.84207 0.03474,0.706557 0.05468,6.543405 0.04438,12.970772 l -0.01875,11.686126 -0.16256,0.394853 c -0.188939,0.458905 -0.554494,0.756003 -1.086278,0.882838 -0.470685,0.112265 -1.506915,0.151825 -1.98878,0.07593 z m 42.208055,-0.06634 c -0.5598,-0.119764 -0.878025,-0.39671 -1.145826,-0.997204 -0.124683,-0.279565 -0.12937,-0.751075 -0.12937,-13.012209 0,-12.114568 0.0061,-12.745873 0.12741,-13.219407 0.225778,-0.881219 0.528432,-1.447002 1.223798,-2.287774 0.362055,-0.437765 0.940194,-1.077039 1.28475,-1.420607 0.813646,-0.811317 1.349249,-1.509233 1.653206,-2.15422 l 0.244663,-0.519177 0.01976,15.788693 c 0.01085,8.683788 -0.0037,16.008635 -0.03262,16.277445 -0.0716,0.667877 -0.293222,1.11864 -0.676046,1.375024 -0.286915,0.192141 -0.385929,0.209371 -1.281048,0.222911 -0.533554,0.0081 -1.113441,-0.01601 -1.288637,-0.05344 z m 9.411235,-0.785571 C 62.03267,64.931151 61.694358,64.560479 61.494695,63.888126 61.377733,63.494278 61.372702,62.335149 61.393171,40.515882 l 0.02156,-22.957844 -0.853472,1.036377 c -0.469414,0.570003 -1.225832,1.521058 -1.680936,2.113445 -0.455104,0.592388 -3.48227,4.265893 -6.727047,8.163339 -3.244773,3.897446 -6.848081,8.226627 -8.007364,9.620411 -2.683913,3.226818 -3.266566,3.730152 -4.186518,3.616583 C 39.189905,42.0132 38.633855,41.515502 36.70529,39.195566 29.706274,30.776219 13.804458,11.639402 9.8863139,6.9206522 7.180433,3.6618672 4.8963722,0.92053896 4.8106249,0.82880684 4.7248719,0.73707471 4.654717,0.63599856 4.654717,0.60419317 c 0,-0.16824603 1.3154968,-0.59815444 2.2693327,-0.7416239 1.5023718,-0.22597658 3.2737413,0.381135 4.6032103,1.57767003 0.254635,0.2291726 6.568936,7.7396669 14.031779,16.6899797 9.312289,11.168389 13.660323,16.328546 13.860537,16.449399 0.441159,0.266293 0.98254,0.240969 1.432152,-0.06699 0.236438,-0.16195 1.187537,-1.247094 2.849439,-3.251036 7.381655,-8.90088 20.669812,-24.7319476 21.239236,-25.3037185 0.361498,-0.3629886 0.717361,-0.7262331 0.790811,-0.8072107 0.07345,-0.080972 0.14038,-0.1382975 0.148737,-0.1273822 0.0084,0.010891 0.02431,13.1853754 0.03543,29.2765894 0.01546,22.38596 0.0011,29.336528 -0.06198,29.59647 -0.12159,0.502423 -0.360995,0.877547 -0.708829,1.110683 -0.282418,0.189297 -0.38998,0.208681 -1.244587,0.224364 -0.621302,0.01143 -1.046653,-0.02071 -1.266568,-0.09562 z M 39.404064,25.438336 c -0.464086,-0.380677 -2.017399,-2.277008 -2.114628,-2.581599 -0.144564,-0.452895 -0.134947,-0.729311 0.04142,-1.190073 0.178717,-0.466915 0.683185,-1.098071 3.252472,-4.06928 5.515743,-6.378588 9.322602,-10.9307167 11.885105,-14.2118558 1.538183,-1.9695536 2.150243,-2.49498534 3.46338,-2.97319703 1.09196,-0.39766857 2.151419,-0.47792004 4.665093,-0.3533767 L 62.04038,0.13047494 60.699033,1.7580016 c -0.737744,0.8951396 -1.917396,2.3388091 -2.621452,3.2081545 -0.704057,0.8693513 -3.026282,3.645562 -5.1605,6.1693649 -2.134212,2.523809 -5.688931,6.758164 -7.899368,9.409682 -2.633538,3.159048 -4.119545,4.882247 -4.310713,4.998762 -0.452732,0.275934 -0.879984,0.241296 -1.302925,-0.105629 z"
       id="path1-7"
       sodipodi:nodetypes="cssccsscsssssssscccssscssssscsssscssssssccsssccssscssssssssssssssssssscssssssssssscssssss" /></g></svg>
